<svg xmlns="http://www.w3.org/2000/svg" width="200" height="40" viewBox="0,0,200,40"><path d="M5 5 C117 31,120 27,189 22" stroke="#777" fill="none"/><path d="M7 25 C95 15,119 9,194 12" stroke="#222" fill="none"/><path fill="#444" d="M50.79 25.57L50.95 25.73L50.84 25.61Q50.92 25.69 54.30 25.65L54.29 25.64L54.28 25.63Q56.43 25.50 57.50 25.53L57.58 25.61L57.51 25.55Q56.53 22.74 54.10 17.11L54.06 17.07L54.04 17.05Q53.46 18.45 52.41 21.31L52.48 21.37L52.48 21.37Q51.40 24.20 50.83 25.61ZM58.66 28.06L58.62 28.03L58.62 28.02Q56.36 28.01 54.15 28.05L54.16 28.05L54.22 28.12Q51.99 28.17 49.71 28.36L49.65 28.30L49.60 28.26Q48.10 31.71 44.86 35.89L44.95 35.98L44.94 35.97Q42.25 36.48 40.88 36.98L41.05 37.14L41.00 37.09Q46.09 31.41 50.78 18.05L50.82 18.09L50.84 18.11Q52.08 14.68 53.46 11.44L53.35 11.34L53.32 11.30Q53.62 11.30 53.96 11.30L54.01 11.35L54.74 11.35L54.69 11.30Q55.52 12.74 60.35 24.39L60.43 24.47L60.40 24.44Q63.55 32.16 67.55 36.31L67.57 36.33L67.55 36.31Q67.07 36.21 63.19 35.34L63.30 35.45L63.16 35.30Q60.74 32.32 58.76 28.17ZM63.11 35.68L63.08 35.65L63.76 35.83L63.73 35.80Q63.93 35.77 64.24 35.89L64.26 35.91L64.32 35.97Q64.68 36.37 66.51 38.39L66.53 38.41L66.47 38.35Q70.00 39.14 72.40 40.17L72.45 40.22L72.56 40.33Q66.95 35.67 62.96 27.68L62.93 27.66L62.97 27.69Q61.37 24.41 59.92 20.46L59.88 20.42L57.12 12.89L57.10 12.88Q56.84 12.96 56.62 12.96L56.71 13.06L56.11 12.99L56.12 13.00Q55.80 12.38 55.08 11.01L54.97 10.90L55.09 11.02Q54.65 11.12 54.20 11.08L54.06 10.94L54.06 10.94Q53.65 10.95 53.11 10.95L53.01 10.85L53.18 11.01Q51.75 14.91 47.86 25.07L47.75 24.96L47.84 25.05Q44.62 32.91 39.98 37.71L40.02 37.75L40.14 37.87Q40.99 37.28 43.01 36.67L43.03 36.69L43.00 36.66Q42.32 37.61 40.76 39.40L40.86 39.51L40.71 39.35Q42.45 38.73 46.37 37.97L46.39 37.99L46.36 37.96Q49.84 33.67 51.40 30.44L51.30 30.34L51.48 30.52Q53.16 30.33 55.48 30.37L55.43 30.32L55.40 30.28Q58.10 30.28 59.47 30.36L59.46 30.35L59.55 30.44Q60.74 32.74 63.10 35.67ZM55.43 21.03L55.42 21.02L55.45 21.05Q56.30 23.12 57.06 25.21L57.04 25.19L53.67 25.13L53.75 25.21Q54.40 23.84 55.47 21.06Z"/><path fill="#333" d="M137.48 34.95L137.45 34.92L137.45 34.93Q133.18 34.27 131.35 32.82L131.42 32.89L131.41 32.88Q129.68 31.53 129.26 28.52L129.14 28.40L129.28 28.54Q129.08 28.00 128.73 23.24L128.71 23.21L128.87 23.37Q128.85 22.14 128.77 20.88L128.85 20.96L128.75 20.85Q128.56 15.79 130.77 14.04L130.92 14.19L130.91 14.18Q133.45 11.96 141.21 11.28L141.17 11.23L141.24 11.31Q142.58 11.16 144.22 11.20L144.19 11.17L144.21 11.19Q144.27 11.25 147.24 11.25L147.29 11.30L147.10 11.11Q148.08 11.26 149.80 11.41L149.65 11.26L149.75 11.36Q149.26 12.32 148.23 15.40L148.25 15.41L148.16 15.33Q146.04 14.08 143.03 14.08L143.07 14.12L143.10 14.15Q142.40 14.22 141.60 14.29L141.64 14.33L141.50 14.19Q136.44 14.69 133.93 16.67L133.89 16.63L134.00 16.74Q132.01 18.36 131.86 21.71L131.83 21.69L131.71 21.57Q131.72 22.22 131.75 23.48L131.72 23.45L131.84 23.57Q131.84 28.29 134.24 30.38L134.26 30.40L134.33 30.47Q136.47 32.38 141.46 32.69L141.47 32.70L141.38 32.61Q144.59 32.85 147.60 31.06L147.57 31.03L147.59 31.05Q148.12 33.72 148.73 35.09L148.80 35.16L148.75 35.11Q146.62 35.34 144.98 35.30L145.01 35.33L144.99 35.30Q140.66 35.39 137.54 35.01ZM152.62 38.71L152.64 38.73L152.53 38.62Q150.79 35.66 150.10 33.07L150.08 33.05L150.12 33.09Q149.61 33.27 148.62 33.65L148.65 33.67L148.66 33.68Q148.39 32.96 148.20 32.12L148.22 32.14L147.82 30.40L147.71 30.30Q144.40 32.32 141.28 32.20L141.28 32.21L141.40 32.32Q137.15 32.15 134.83 30.40L134.77 30.33L134.86 30.43Q133.72 28.60 133.79 25.67L133.64 25.52L133.63 25.51Q133.85 21.08 136.33 18.95L136.44 19.06L136.30 18.93Q138.40 16.99 143.08 16.38L143.25 16.55L143.14 16.44Q144.00 16.38 144.72 16.38L144.66 16.33L144.66 16.32Q147.44 16.32 149.53 17.84L149.56 17.87L149.52 17.83Q149.98 15.67 151.20 12.43L151.30 12.53L151.25 12.48Q150.95 12.45 150.40 12.39L150.53 12.52L150.49 12.48Q149.83 12.32 149.56 12.32L149.73 12.48L149.64 12.39Q149.90 11.93 150.36 10.94L150.25 10.84L150.21 10.79Q150.07 10.88 147.58 10.80L147.51 10.74L147.49 10.72Q145.08 10.73 144.44 10.77L144.35 10.69L144.42 10.75Q133.97 11.15 130.50 13.74L130.54 13.77L130.35 13.59Q128.44 15.52 128.44 19.44L128.42 19.42L128.49 19.49Q128.49 20.60 128.61 23.30L128.46 23.15L128.45 23.14Q128.69 26.81 128.92 28.52L128.96 28.57L128.96 28.56Q129.29 31.64 130.89 33.16L130.90 33.17L130.81 33.08Q131.34 33.80 132.60 34.94L132.68 35.03L132.53 34.87Q135.82 36.68 141.07 37.44L141.20 37.57L141.15 37.52Q147.53 38.42 152.52 38.61Z"/><path fill="#333" d="M110.24 24.19L110.25 24.21L110.08 24.04Q108.27 23.94 107.03 25.37L107.08 25.41L107.13 25.46Q105.76 26.76 105.57 28.66L105.68 28.77L105.73 28.82Q105.38 30.76 106.47 31.73L106.49 31.75L106.49 31.75Q107.59 32.74 109.69 32.63L109.63 32.57L109.76 32.70Q111.74 32.44 112.85 31.75L112.99 31.90L112.92 31.83Q114.02 30.68 114.02 29.12L114.09 29.19L114.07 29.17Q113.99 28.70 113.91 28.32L113.91 28.33L113.87 28.28Q113.94 26.61 112.84 25.26L112.99 25.40L112.91 25.33Q111.75 23.92 110.08 24.03ZM109.70 35.19L109.64 35.13L109.74 35.24Q105.30 35.17 103.89 34.41L104.01 34.53L104.04 34.55Q102.98 33.76 102.79 32.05L102.81 32.07L102.68 31.94Q102.67 31.28 102.71 30.56L102.65 30.51L102.73 30.58Q102.78 29.53 102.78 29.07L102.92 29.21L102.75 29.04Q103.27 26.25 103.42 25.56L103.53 25.68L103.54 25.68Q103.84 23.59 104.68 22.18L104.80 22.30L104.78 22.28Q107.42 17.88 113.36 11.52L113.33 11.49L113.36 11.52Q116.04 11.23 118.25 10.43L118.23 10.41L118.19 10.37Q111.41 17.91 108.22 22.13L108.19 22.11L108.22 22.14Q109.25 21.69 110.55 21.69L110.40 21.54L110.50 21.64Q113.71 21.54 115.24 23.48L115.24 23.48L115.28 23.52Q116.71 25.26 117.05 28.80L117.00 28.75L117.04 28.79Q117.13 29.52 117.13 30.13L117.01 30.02L117.05 30.06Q117.00 33.12 114.79 34.19L114.76 34.16L114.82 34.22Q113.70 34.92 109.81 35.30ZM112.04 37.65L111.97 37.58L112.10 37.70Q113.28 37.56 115.26 37.63L115.28 37.65L115.32 37.70Q117.01 37.82 118.58 37.10L118.45 36.98L118.44 36.97Q119.67 36.29 119.67 34.50L119.56 34.39L119.51 34.35Q119.50 33.84 119.33 32.85L119.37 32.89L119.43 32.95Q119.25 31.95 119.25 31.49L119.22 31.47L119.33 31.57Q118.40 26.80 116.80 24.90L116.86 24.95L116.69 24.78Q116.63 24.69 116.48 24.46L116.45 24.43L116.23 24.29L116.25 24.34L116.18 24.28Q115.77 23.72 115.17 22.77L115.22 22.82L115.21 22.81Q114.32 21.89 112.35 21.43L112.23 21.31L112.41 21.50Q113.48 19.74 116.45 16.05L116.49 16.09L120.81 10.90L120.67 10.76Q119.11 11.64 116.72 12.40L116.75 12.43L116.72 12.40Q117.64 11.42 119.43 9.44L119.48 9.49L119.53 9.54Q116.99 10.47 113.11 11.04L113.25 11.18L113.23 11.16Q107.43 16.97 104.46 21.92L104.53 21.99L104.60 22.06Q103.00 24.49 102.43 30.73L102.42 30.73L102.39 30.70Q102.40 31.36 102.48 32.31L102.47 32.30L102.48 32.31Q102.49 34.00 103.59 34.91L103.52 34.84L103.57 34.89Q104.05 35.14 104.01 35.17L104.03 35.19L104.04 35.21Q104.33 36.02 105.13 36.44L105.22 36.54L105.15 36.47Q106.54 37.10 108.48 37.29L108.43 37.23L108.45 37.25Q108.50 37.30 112.00 37.61ZM111.75 26.36L111.88 26.49L111.85 26.45Q112.43 26.35 113.38 26.84L113.37 26.84L113.40 26.87Q113.57 27.64 113.57 28.29L113.75 28.47L113.68 28.40Q113.94 30.33 112.99 31.32L112.98 31.32L112.91 31.24Q111.84 31.96 109.74 32.27L109.80 32.32L109.71 32.23Q108.31 32.28 107.77 32.01L107.71 31.95L107.83 32.06Q107.50 31.47 107.50 31.16L107.66 31.32L107.57 31.23Q107.24 27.86 110.17 26.57L110.33 26.72L110.27 26.67Q110.99 26.28 111.76 26.36Z"/><path fill="#444" d="M25.51 35.19L25.48 35.16L23.10 28.33L23.10 28.33Q18.63 15.64 12.69 9.24L12.75 9.30L12.85 9.40Q14.73 10.33 17.32 10.94L17.40 11.02L17.45 11.06Q22.55 17.31 26.89 30.06L26.87 30.04L26.93 30.10Q29.96 21.98 30.64 20.38L30.53 20.26L30.68 20.41Q33.03 14.77 35.85 11.46L35.76 11.37L35.86 11.47Q37.90 11.07 40.53 10.20L40.52 10.19L40.50 10.18Q35.94 14.79 32.90 22.02L32.80 21.92L32.85 21.98Q31.42 25.61 27.73 35.13L27.88 35.28L27.83 35.23Q27.22 35.19 26.65 35.15L26.59 35.09L26.59 35.09Q26.02 35.09 25.45 35.13ZM30.59 37.69L30.58 37.68L30.57 37.66Q33.26 27.57 34.82 23.53L34.92 23.63L34.86 23.56Q37.93 15.94 42.35 11.07L42.20 10.92L42.24 10.96Q41.35 11.48 39.26 12.20L39.20 12.15L40.33 10.80L40.34 10.82Q40.82 10.04 41.43 9.39L41.56 9.52L41.40 9.36Q38.62 10.38 35.61 10.95L35.57 10.92L35.71 11.05Q31.25 16.30 27.36 27.76L27.42 27.81L27.46 27.85Q23.70 17.62 20.50 13.25L20.59 13.33L20.54 13.28Q20.10 13.15 19.22 12.99L19.31 13.08L19.36 13.13Q19.17 12.78 17.57 10.73L17.53 10.69L17.42 10.59Q14.51 9.91 11.80 8.51L11.80 8.50L11.89 8.59Q18.35 15.51 22.73 28.30L22.86 28.43L22.89 28.46Q23.98 31.99 25.16 35.57L25.19 35.59L25.23 35.64Q25.68 35.78 26.52 35.67L26.39 35.54L26.39 35.54Q26.77 36.26 27.46 37.60L27.35 37.49L27.36 37.49Q28.30 37.53 29.02 37.60L29.08 37.66L29.03 37.61Q29.85 37.70 30.61 37.70Z"/><path fill="#444" d="M165.77 34.95L165.69 34.87L165.76 34.95Q161.59 34.40 159.77 32.95L159.77 32.95L159.79 32.97Q157.87 31.43 157.45 28.42L157.56 28.54L157.48 28.45Q157.42 28.05 157.07 23.29L157.12 23.33L157.12 23.34Q157.12 22.12 157.04 20.86L157.11 20.93L157.10 20.92Q156.99 15.94 159.20 14.19L159.11 14.10L159.08 14.07Q161.87 12.09 169.63 11.41L169.54 11.31L169.57 11.35Q170.87 11.16 172.51 11.20L172.53 11.23L172.57 11.27Q172.43 11.12 175.40 11.12L175.50 11.23L175.39 11.12Q176.39 11.28 178.10 11.43L177.97 11.29L178.11 11.43Q177.59 12.36 176.56 15.44L176.59 15.48L176.60 15.48Q174.41 14.16 171.40 14.16L171.41 14.18L171.37 14.14Q170.57 14.10 169.77 14.18L169.84 14.24L169.93 14.33Q164.83 14.79 162.31 16.77L162.25 16.71L162.17 16.62Q160.12 18.19 159.97 21.54L160.10 21.67L159.99 21.56Q160.03 22.25 160.07 23.50L160.01 23.45L160.03 23.46Q160.26 28.42 162.66 30.52L162.50 30.35L162.49 30.35Q164.66 32.29 169.65 32.59L169.69 32.64L169.82 32.76Q172.91 32.88 175.92 31.09L175.95 31.13L175.78 30.96Q176.48 33.79 177.09 35.16L177.02 35.09L177.00 35.07Q174.90 35.33 173.26 35.29L173.28 35.31L173.31 35.34Q168.76 35.21 165.64 34.83ZM180.75 38.56L180.78 38.58L180.78 38.59Q178.99 35.57 178.30 32.99L178.33 33.01L178.30 32.98Q178.02 33.39 177.03 33.77L176.91 33.65L176.88 33.62Q176.72 33.00 176.53 32.17L176.37 32.01L176.05 30.35L176.11 30.41Q172.79 32.42 169.67 32.31L169.67 32.31L169.57 32.21Q165.35 32.06 163.02 30.31L163.05 30.34L163.17 30.45Q161.86 28.46 161.94 25.53L162.10 25.69L162.02 25.61Q162.14 21.08 164.61 18.95L164.65 18.99L164.62 18.96Q166.78 17.09 171.47 16.48L171.50 16.52L171.53 16.54Q172.21 16.31 172.93 16.31L173.03 16.40L173.07 16.44Q175.65 16.25 177.75 17.77L177.90 17.93L177.83 17.86Q178.38 15.78 179.60 12.54L179.57 12.51L179.65 12.59Q179.36 12.57 178.81 12.52L178.76 12.47L178.77 12.47Q178.20 12.40 177.93 12.40L177.86 12.33L177.85 12.32Q178.19 11.94 178.65 10.95L178.62 10.91L178.47 10.76Q178.27 10.79 175.77 10.72L175.78 10.73L175.90 10.85Q173.26 10.62 172.61 10.66L172.76 10.81L172.80 10.85Q162.28 11.18 158.82 13.77L158.82 13.77L158.82 13.77Q156.63 15.43 156.63 19.35L156.63 19.35L156.67 19.38Q156.74 20.56 156.85 23.26L156.82 23.23L156.87 23.28Q157.04 26.87 157.27 28.59L157.18 28.50L157.10 28.42Q157.65 31.71 159.25 33.23L159.05 33.04L159.23 33.21Q159.57 33.75 160.83 34.89L160.93 34.99L160.83 34.89Q164.19 36.76 169.44 37.52L169.39 37.48L169.41 37.50Q175.92 38.52 180.91 38.71Z"/><path fill="#111" d="M90.61 35.42L90.62 35.43L90.58 35.39Q87.66 31.56 85.04 22.92L84.92 22.81L85.07 22.95Q84.39 20.79 83.59 18.65L83.46 18.53L80.70 27.41L80.62 27.34Q78.87 32.33 76.48 35.56L76.32 35.41L76.49 35.58Q75.63 35.63 73.99 35.78L73.84 35.64L73.99 35.79Q74.12 34.61 74.12 33.36L74.13 33.37L74.05 33.29Q73.98 27.21 71.24 21.08L71.34 21.18L71.35 21.18Q68.22 14.29 62.36 9.30L62.41 9.35L62.27 9.21Q64.53 10.03 66.89 10.56L66.79 10.46L66.76 10.43Q75.50 18.94 76.80 29.91L76.80 29.91L76.86 29.97Q78.35 26.51 79.80 21.14L79.86 21.21L79.83 21.18Q81.81 13.68 82.31 12.27L82.41 12.37L84.60 12.32L84.59 12.31Q85.40 14.45 86.04 16.77L85.96 16.68L87.21 21.13L87.20 21.12Q88.67 26.48 90.08 29.72L90.09 29.73L90.13 29.76Q91.92 18.27 99.84 10.92L99.80 10.89L99.80 10.88Q101.28 10.49 104.25 9.85L104.19 9.79L104.31 9.91Q98.86 14.09 95.82 20.22L95.80 20.20L95.90 20.31Q92.68 26.41 92.68 33.19L92.75 33.26L92.86 33.37Q92.78 34.40 92.86 35.54L92.82 35.50L91.78 35.49L91.65 35.36Q91.19 35.43 90.62 35.43ZM96.76 38.22L96.74 38.20L96.89 38.35Q95.61 34.75 95.73 30.87L95.76 30.90L95.59 30.73Q96.09 19.35 105.45 11.09L105.28 10.92L105.30 10.94Q104.35 11.17 102.41 11.70L102.45 11.74L102.53 11.83Q103.41 10.92 105.31 9.13L105.34 9.15L105.40 9.21Q102.74 9.97 99.81 10.47L99.79 10.46L99.68 10.34Q92.30 17.58 90.40 27.06L90.44 27.10L90.37 27.03Q89.78 25.38 86.93 13.92L86.86 13.86L86.82 13.82Q86.51 14.01 85.56 14.01L85.58 14.02L85.16 12.84L85.31 12.99Q85.13 12.40 84.91 11.90L84.87 11.86L82.04 11.93L81.96 11.85Q81.07 14.23 79.79 19.35L79.89 19.45L79.93 19.49Q78.71 24.66 77.72 27.14L77.72 27.14L77.69 27.11Q76.11 19.21 70.56 12.89L70.50 12.84L70.41 12.75Q70.10 12.86 69.15 12.67L69.12 12.63L69.11 12.63Q68.29 11.69 66.73 10.05L66.71 10.04L66.81 10.14Q63.44 9.35 61.27 8.55L61.14 8.42L61.24 8.53Q66.83 13.12 70.10 19.33L70.12 19.35L70.22 19.45Q73.53 25.92 73.53 32.93L73.64 33.03L73.66 33.05Q73.66 34.61 73.47 36.21L73.36 36.10L73.51 36.26Q73.59 36.10 74.05 36.01L74.22 36.18L74.11 36.07Q74.52 35.93 74.74 35.93L74.89 36.07L74.87 37.08L74.89 37.10Q74.87 37.53 74.94 38.07L74.83 37.96L74.90 38.03Q75.94 37.84 78.22 37.69L78.23 37.70L78.31 37.78Q81.86 32.31 84.60 22.91L84.73 23.03L84.65 22.95Q87.55 31.86 90.52 35.82L90.39 35.70L90.51 35.82Q91.00 35.85 91.84 35.96L91.74 35.87L91.84 35.96Q92.55 36.87 93.61 37.93L93.72 38.04L93.62 37.94Q94.37 37.96 96.77 38.23Z"/></svg>